<mxfile host="app.diagrams.net" modified="2023-04-25T06:43:52.316Z" agent="Mozilla/5.0 (Windows NT 10.0; Win64; x64) AppleWebKit/537.36 (KHTML, like Gecko) Chrome/112.0.0.0 Safari/537.36 Edg/112.0.1722.48" etag="FUMr_WW8OBdRSsNPpyXi" version="21.2.1" type="device">
  <diagram name="Страница 1" id="xLHiulQjBwZiCL2pwLtW">
    <mxGraphModel dx="1687" dy="911" grid="1" gridSize="10" guides="1" tooltips="1" connect="1" arrows="1" fold="1" page="1" pageScale="1" pageWidth="827" pageHeight="1169" math="0" shadow="0">
      <root>
        <mxCell id="0" />
        <mxCell id="1" parent="0" />
        <mxCell id="MrtJxb2pCr5E3m5gF2dC-7" value="&lt;br&gt;Server" style="shape=folder;fontStyle=1;spacingTop=10;tabWidth=60;tabHeight=20;tabPosition=left;html=1;whiteSpace=wrap;align=center;verticalAlign=top;labelPosition=center;verticalLabelPosition=middle;textDirection=ltr;" vertex="1" parent="1">
          <mxGeometry x="90" y="750" width="730" height="430" as="geometry" />
        </mxCell>
        <mxCell id="MrtJxb2pCr5E3m5gF2dC-8" value="&quot;Device&quot;&lt;br&gt;&lt;b&gt;CasinoServer&lt;/b&gt;" style="verticalAlign=top;align=center;spacingTop=8;spacingLeft=2;spacingRight=12;shape=cube;size=10;direction=south;fontStyle=4;html=1;whiteSpace=wrap;" vertex="1" parent="1">
          <mxGeometry x="140" y="810" width="640" height="330" as="geometry" />
        </mxCell>
        <mxCell id="MrtJxb2pCr5E3m5gF2dC-19" value="&quot;Device&quot;&lt;br&gt;&lt;b&gt;Tomcat 10 server&lt;/b&gt;" style="verticalAlign=top;align=center;spacingTop=8;spacingLeft=2;spacingRight=12;shape=cube;size=10;direction=south;fontStyle=4;html=1;whiteSpace=wrap;" vertex="1" parent="1">
          <mxGeometry x="370" y="860" width="370" height="260" as="geometry" />
        </mxCell>
        <mxCell id="MrtJxb2pCr5E3m5gF2dC-1" value="&lt;br&gt;Player" style="shape=folder;fontStyle=1;spacingTop=10;tabWidth=60;tabHeight=20;tabPosition=left;html=1;whiteSpace=wrap;align=center;verticalAlign=top;labelPosition=center;verticalLabelPosition=middle;textDirection=ltr;" vertex="1" parent="1">
          <mxGeometry x="90" y="360" width="430" height="290" as="geometry" />
        </mxCell>
        <mxCell id="MrtJxb2pCr5E3m5gF2dC-10" value="" style="edgeStyle=orthogonalEdgeStyle;rounded=0;orthogonalLoop=1;jettySize=auto;html=1;endArrow=none;endFill=0;" edge="1" parent="1" source="MrtJxb2pCr5E3m5gF2dC-3" target="MrtJxb2pCr5E3m5gF2dC-8">
          <mxGeometry relative="1" as="geometry">
            <mxPoint x="310" y="710" as="targetPoint" />
            <Array as="points">
              <mxPoint x="310" y="780" />
              <mxPoint x="310" y="780" />
            </Array>
          </mxGeometry>
        </mxCell>
        <mxCell id="MrtJxb2pCr5E3m5gF2dC-11" value="TCP/IP" style="edgeLabel;html=1;align=center;verticalAlign=middle;resizable=0;points=[];" vertex="1" connectable="0" parent="MrtJxb2pCr5E3m5gF2dC-10">
          <mxGeometry x="-0.1368" y="-1" relative="1" as="geometry">
            <mxPoint as="offset" />
          </mxGeometry>
        </mxCell>
        <mxCell id="MrtJxb2pCr5E3m5gF2dC-3" value="&quot;Device&quot;&lt;br&gt;&lt;b&gt;User PC&lt;/b&gt;" style="verticalAlign=top;align=center;spacingTop=8;spacingLeft=2;spacingRight=12;shape=cube;size=10;direction=south;fontStyle=4;html=1;whiteSpace=wrap;" vertex="1" parent="1">
          <mxGeometry x="120" y="410" width="380" height="220" as="geometry" />
        </mxCell>
        <mxCell id="MrtJxb2pCr5E3m5gF2dC-4" value="&quot;Device&quot;&lt;br&gt;&lt;b&gt;Web browser&lt;/b&gt;" style="verticalAlign=top;align=center;spacingTop=8;spacingLeft=2;spacingRight=12;shape=cube;size=10;direction=south;fontStyle=4;html=1;whiteSpace=wrap;" vertex="1" parent="1">
          <mxGeometry x="160" y="470" width="290" height="130" as="geometry" />
        </mxCell>
        <mxCell id="MrtJxb2pCr5E3m5gF2dC-5" value="«Artifact»&lt;br&gt;&lt;b&gt;HTML 5&lt;/b&gt;" style="html=1;dropTarget=0;whiteSpace=wrap;" vertex="1" parent="1">
          <mxGeometry x="215" y="530" width="180" height="40" as="geometry" />
        </mxCell>
        <mxCell id="MrtJxb2pCr5E3m5gF2dC-6" value="" style="shape=module;jettyWidth=8;jettyHeight=4;" vertex="1" parent="MrtJxb2pCr5E3m5gF2dC-5">
          <mxGeometry x="1" width="20" height="20" relative="1" as="geometry">
            <mxPoint x="-27" y="7" as="offset" />
          </mxGeometry>
        </mxCell>
        <mxCell id="MrtJxb2pCr5E3m5gF2dC-12" value="«Artifact»&lt;br&gt;&lt;b&gt;PostgreSQL DB&lt;/b&gt;" style="html=1;dropTarget=0;whiteSpace=wrap;" vertex="1" parent="1">
          <mxGeometry x="160" y="860" width="160" height="90" as="geometry" />
        </mxCell>
        <mxCell id="MrtJxb2pCr5E3m5gF2dC-13" value="" style="shape=module;jettyWidth=8;jettyHeight=4;" vertex="1" parent="MrtJxb2pCr5E3m5gF2dC-12">
          <mxGeometry x="1" width="20" height="20" relative="1" as="geometry">
            <mxPoint x="-27" y="7" as="offset" />
          </mxGeometry>
        </mxCell>
        <mxCell id="MrtJxb2pCr5E3m5gF2dC-14" value="&quot;Execution envirment&quot;&lt;br&gt;&lt;b&gt;javaEE&lt;/b&gt;" style="verticalAlign=top;align=center;spacingTop=8;spacingLeft=2;spacingRight=12;shape=cube;size=10;direction=south;fontStyle=4;html=1;whiteSpace=wrap;" vertex="1" parent="1">
          <mxGeometry x="414" y="930" width="290" height="160" as="geometry" />
        </mxCell>
        <mxCell id="MrtJxb2pCr5E3m5gF2dC-15" value="«Artifact»&lt;br&gt;&lt;b&gt;casino_spring.war&lt;/b&gt;" style="html=1;dropTarget=0;whiteSpace=wrap;" vertex="1" parent="1">
          <mxGeometry x="490" y="990" width="130" height="70" as="geometry" />
        </mxCell>
        <mxCell id="MrtJxb2pCr5E3m5gF2dC-16" value="" style="shape=module;jettyWidth=8;jettyHeight=4;" vertex="1" parent="MrtJxb2pCr5E3m5gF2dC-15">
          <mxGeometry x="1" width="20" height="20" relative="1" as="geometry">
            <mxPoint x="-27" y="7" as="offset" />
          </mxGeometry>
        </mxCell>
        <mxCell id="MrtJxb2pCr5E3m5gF2dC-17" value="" style="edgeStyle=orthogonalEdgeStyle;rounded=0;orthogonalLoop=1;jettySize=auto;html=1;endArrow=none;endFill=0;" edge="1" parent="1" source="MrtJxb2pCr5E3m5gF2dC-19" target="MrtJxb2pCr5E3m5gF2dC-12">
          <mxGeometry relative="1" as="geometry">
            <mxPoint x="414" y="1024.6555172413794" as="sourcePoint" />
            <mxPoint x="320" y="1024.6555172413794" as="targetPoint" />
            <Array as="points">
              <mxPoint x="220" y="1050" />
            </Array>
          </mxGeometry>
        </mxCell>
        <mxCell id="MrtJxb2pCr5E3m5gF2dC-18" value="port 5432" style="edgeLabel;html=1;align=center;verticalAlign=middle;resizable=0;points=[];" vertex="1" connectable="0" parent="MrtJxb2pCr5E3m5gF2dC-17">
          <mxGeometry x="-0.1368" y="-1" relative="1" as="geometry">
            <mxPoint as="offset" />
          </mxGeometry>
        </mxCell>
      </root>
    </mxGraphModel>
  </diagram>
</mxfile>
